<svg width="410" height="398" viewBox="0 0 410 398" fill="none" xmlns="http://www.w3.org/2000/svg">
<rect y="195.357" width="7.18215" height="7.18215" fill="#F0F0F3"/>
<rect y="244.193" width="7.18215" height="7.18215" fill="#F0F0F3"/>
<rect y="341.869" width="7.18215" height="7.18215" fill="#F0F0F3"/>
<rect x="25.1377" y="195.357" width="7.18215" height="7.18215" fill="#F0F0F3"/>
<rect x="25.1377" y="244.193" width="7.18215" height="7.18215" fill="#F0F0F3"/>
<rect x="25.1377" y="341.869" width="7.18215" height="7.18215" fill="#F0F0F3"/>
<rect x="50.2754" y="195.357" width="7.18215" height="7.18215" fill="#F0F0F3"/>
<rect x="50.2754" y="244.193" width="7.18215" height="7.18215" fill="#F0F0F3"/>
<rect x="50.2754" y="341.869" width="7.18215" height="7.18215" fill="#F0F0F3"/>
<rect x="75.4131" y="195.357" width="7.18215" height="7.18215" fill="#F0F0F3"/>
<rect x="75.4131" y="244.193" width="7.18215" height="7.18215" fill="#F0F0F3"/>
<rect x="75.4131" y="341.869" width="7.18215" height="7.18215" fill="#F0F0F3"/>
<rect x="100.55" y="195.357" width="7.18215" height="7.18215" fill="#F0F0F3"/>
<rect x="100.55" y="244.193" width="7.18215" height="7.18215" fill="#F0F0F3"/>
<rect x="100.55" y="341.869" width="7.18215" height="7.18215" fill="#F0F0F3"/>
<rect x="125.688" y="195.357" width="7.18215" height="7.18215" fill="#F0F0F3"/>
<rect x="125.688" y="244.193" width="7.18215" height="7.18215" fill="#F0F0F3"/>
<rect x="125.688" y="341.869" width="7.18215" height="7.18215" fill="#F0F0F3"/>
<rect x="150.825" y="195.357" width="7.18215" height="7.18215" fill="#F0F0F3"/>
<rect x="150.825" y="244.193" width="7.18215" height="7.18215" fill="#F0F0F3"/>
<rect x="150.825" y="341.869" width="7.18215" height="7.18215" fill="#F0F0F3"/>
<rect x="175.963" y="195.357" width="7.18215" height="7.18215" fill="#F0F0F3"/>
<rect x="175.963" y="244.193" width="7.18215" height="7.18215" fill="#F0F0F3"/>
<rect x="175.963" y="341.869" width="7.18215" height="7.18215" fill="#F0F0F3"/>
<rect x="201.101" y="195.357" width="7.18215" height="7.18215" fill="#F0F0F3"/>
<rect x="201.101" y="244.193" width="7.18215" height="7.18215" fill="#F0F0F3"/>
<rect x="201.101" y="341.869" width="7.18215" height="7.18215" fill="#F0F0F3"/>
<rect x="226.238" y="195.357" width="7.18215" height="7.18215" fill="#F0F0F3"/>
<rect x="226.238" y="244.193" width="7.18215" height="7.18215" fill="#F0F0F3"/>
<rect x="226.238" y="341.869" width="7.18215" height="7.18215" fill="#F0F0F3"/>
<rect x="251.376" y="195.357" width="7.18215" height="7.18215" fill="#F0F0F3"/>
<rect x="251.376" y="244.193" width="7.18215" height="7.18215" fill="#F0F0F3"/>
<rect x="251.376" y="341.869" width="7.18215" height="7.18215" fill="#F0F0F3"/>
<rect x="276.514" y="195.357" width="7.18215" height="7.18215" fill="#F0F0F3"/>
<rect x="276.514" y="244.193" width="7.18215" height="7.18215" fill="#F0F0F3"/>
<rect x="276.514" y="341.869" width="7.18215" height="7.18215" fill="#F0F0F3"/>
<rect x="301.65" y="195.357" width="7.18215" height="7.18215" fill="#F0F0F3"/>
<rect x="301.65" y="244.193" width="7.18215" height="7.18215" fill="#F0F0F3"/>
<rect x="301.65" y="341.869" width="7.18215" height="7.18215" fill="#F0F0F3"/>
<rect width="7.18215" height="7.18215" fill="#F0F0F3"/>
<rect x="25.1377" width="7.18215" height="7.18215" fill="#F0F0F3"/>
<rect x="50.2754" width="7.18215" height="7.18215" fill="#F0F0F3"/>
<rect x="75.4131" width="7.18215" height="7.18215" fill="#F0F0F3"/>
<rect x="100.55" width="7.18215" height="7.18215" fill="#F0F0F3"/>
<rect x="125.688" width="7.18215" height="7.18215" fill="#F0F0F3"/>
<rect x="150.825" width="7.18215" height="7.18215" fill="#F0F0F3"/>
<rect x="175.963" width="7.18215" height="7.18215" fill="#F0F0F3"/>
<rect x="201.101" width="7.18215" height="7.18215" fill="#F0F0F3"/>
<rect x="226.238" width="7.18215" height="7.18215" fill="#F0F0F3"/>
<rect x="251.376" width="7.18215" height="7.18215" fill="#F0F0F3"/>
<rect x="276.514" width="7.18215" height="7.18215" fill="#F0F0F3"/>
<rect x="301.65" width="7.18215" height="7.18215" fill="#F0F0F3"/>
<rect x="326.787" width="7.18215" height="7.18215" fill="#F0F0F3"/>
<rect x="351.914" width="7.18215" height="7.18215" fill="#F0F0F3"/>
<rect x="377.04" width="7.18215" height="7.18215" fill="#F0F0F3"/>
<rect x="402.166" width="7.18215" height="7.18215" fill="#F0F0F3"/>
<rect y="24.418" width="7.18215" height="7.18215" fill="#F0F0F3"/>
<rect x="25.1377" y="24.418" width="7.18215" height="7.18215" fill="#F0F0F3"/>
<rect x="50.2754" y="24.418" width="7.18215" height="7.18215" fill="#F0F0F3"/>
<rect x="75.4131" y="24.418" width="7.18215" height="7.18215" fill="#F0F0F3"/>
<rect x="100.55" y="24.418" width="7.18215" height="7.18215" fill="#F0F0F3"/>
<rect x="125.688" y="24.418" width="7.18215" height="7.18215" fill="#F0F0F3"/>
<rect x="150.825" y="24.418" width="7.18215" height="7.18215" fill="#F0F0F3"/>
<rect x="175.963" y="24.418" width="7.18215" height="7.18215" fill="#F0F0F3"/>
<rect x="201.101" y="24.418" width="7.18215" height="7.18215" fill="#F0F0F3"/>
<rect x="226.238" y="24.418" width="7.18215" height="7.18215" fill="#F0F0F3"/>
<rect x="251.376" y="24.418" width="7.18215" height="7.18215" fill="#F0F0F3"/>
<rect x="276.514" y="24.418" width="7.18215" height="7.18215" fill="#F0F0F3"/>
<rect x="301.65" y="24.418" width="7.18215" height="7.18215" fill="#F0F0F3"/>
<rect x="326.787" y="24.418" width="7.18215" height="7.18215" fill="#F0F0F3"/>
<rect x="351.914" y="24.418" width="7.18215" height="7.18215" fill="#F0F0F3"/>
<rect x="377.04" y="24.418" width="7.18215" height="7.18215" fill="#F0F0F3"/>
<rect x="402.166" y="24.418" width="7.18215" height="7.18215" fill="#F0F0F3"/>
<rect y="48.8398" width="7.18215" height="7.18215" fill="#F0F0F3"/>
<rect x="25.1377" y="48.8398" width="7.18215" height="7.18215" fill="#F0F0F3"/>
<rect x="50.2754" y="48.8398" width="7.18215" height="7.18215" fill="#F0F0F3"/>
<rect x="75.4131" y="48.8398" width="7.18215" height="7.18215" fill="#F0F0F3"/>
<rect x="100.55" y="48.8398" width="7.18215" height="7.18215" fill="#F0F0F3"/>
<rect x="125.688" y="48.8398" width="7.18215" height="7.18215" fill="#F0F0F3"/>
<rect x="150.825" y="48.8398" width="7.18215" height="7.18215" fill="#F0F0F3"/>
<rect x="175.963" y="48.8398" width="7.18215" height="7.18215" fill="#F0F0F3"/>
<rect x="201.101" y="48.8398" width="7.18215" height="7.18215" fill="#F0F0F3"/>
<rect x="226.238" y="48.8398" width="7.18215" height="7.18215" fill="#F0F0F3"/>
<rect x="251.376" y="48.8398" width="7.18215" height="7.18215" fill="#F0F0F3"/>
<rect x="276.514" y="48.8398" width="7.18215" height="7.18215" fill="#F0F0F3"/>
<rect x="301.65" y="48.8398" width="7.18215" height="7.18215" fill="#F0F0F3"/>
<rect x="326.787" y="48.8398" width="7.18215" height="7.18215" fill="#F0F0F3"/>
<rect x="351.914" y="48.8398" width="7.18215" height="7.18215" fill="#F0F0F3"/>
<rect x="377.04" y="48.8398" width="7.18215" height="7.18215" fill="#F0F0F3"/>
<rect x="402.166" y="48.8398" width="7.18215" height="7.18215" fill="#F0F0F3"/>
<rect y="73.2578" width="7.18215" height="7.18215" fill="#F0F0F3"/>
<rect x="25.1377" y="73.2578" width="7.18215" height="7.18215" fill="#F0F0F3"/>
<rect x="50.2754" y="73.2578" width="7.18215" height="7.18215" fill="#F0F0F3"/>
<rect x="75.4131" y="73.2578" width="7.18215" height="7.18215" fill="#F0F0F3"/>
<rect x="100.55" y="73.2578" width="7.18215" height="7.18215" fill="#F0F0F3"/>
<rect x="125.688" y="73.2578" width="7.18215" height="7.18215" fill="#F0F0F3"/>
<rect x="150.825" y="73.2578" width="7.18215" height="7.18215" fill="#F0F0F3"/>
<rect x="175.963" y="73.2578" width="7.18215" height="7.18215" fill="#F0F0F3"/>
<rect x="201.101" y="73.2578" width="7.18215" height="7.18215" fill="#F0F0F3"/>
<rect x="226.238" y="73.2578" width="7.18215" height="7.18215" fill="#F0F0F3"/>
<rect x="251.376" y="73.2578" width="7.18215" height="7.18215" fill="#F0F0F3"/>
<rect x="276.514" y="73.2578" width="7.18215" height="7.18215" fill="#F0F0F3"/>
<rect x="301.65" y="73.2578" width="7.18215" height="7.18215" fill="#F0F0F3"/>
<rect x="326.787" y="73.2578" width="7.18215" height="7.18215" fill="#F0F0F3"/>
<rect x="351.914" y="73.2578" width="7.18215" height="7.18215" fill="#F0F0F3"/>
<rect x="377.04" y="73.2578" width="7.18215" height="7.18215" fill="#F0F0F3"/>
<rect x="402.166" y="73.2578" width="7.18215" height="7.18215" fill="#F0F0F3"/>
<rect y="97.6758" width="7.18215" height="7.18215" fill="#F0F0F3"/>
<rect x="25.1377" y="97.6777" width="7.18215" height="7.18215" fill="#F0F0F3"/>
<rect x="50.2754" y="97.6777" width="7.18215" height="7.18215" fill="#F0F0F3"/>
<rect x="75.4131" y="97.6777" width="7.18215" height="7.18215" fill="#F0F0F3"/>
<rect x="100.55" y="97.6777" width="7.18215" height="7.18215" fill="#F0F0F3"/>
<rect x="125.688" y="97.6777" width="7.18215" height="7.18215" fill="#F0F0F3"/>
<rect x="150.825" y="97.6777" width="7.18215" height="7.18215" fill="#F0F0F3"/>
<rect x="175.963" y="97.6777" width="7.18215" height="7.18215" fill="#F0F0F3"/>
<rect x="201.101" y="97.6777" width="7.18215" height="7.18215" fill="#F0F0F3"/>
<rect x="226.238" y="97.6777" width="7.18215" height="7.18215" fill="#F0F0F3"/>
<rect x="251.376" y="97.6777" width="7.18215" height="7.18215" fill="#F0F0F3"/>
<rect x="276.514" y="97.6777" width="7.18215" height="7.18215" fill="#F0F0F3"/>
<rect x="301.65" y="97.6777" width="7.18215" height="7.18215" fill="#F0F0F3"/>
<rect x="326.787" y="97.6777" width="7.18215" height="7.18215" fill="#F0F0F3"/>
<rect x="351.914" y="97.6777" width="7.18215" height="7.18215" fill="#F0F0F3"/>
<rect x="377.04" y="97.6777" width="7.18215" height="7.18215" fill="#F0F0F3"/>
<rect x="402.166" y="97.6777" width="7.18215" height="7.18215" fill="#F0F0F3"/>
<rect y="122.096" width="7.18215" height="7.18215" fill="#F0F0F3"/>
<rect x="25.1377" y="122.096" width="7.18215" height="7.18215" fill="#F0F0F3"/>
<rect x="50.2754" y="122.096" width="7.18215" height="7.18215" fill="#F0F0F3"/>
<rect x="75.4131" y="122.096" width="7.18215" height="7.18215" fill="#F0F0F3"/>
<rect x="100.55" y="122.096" width="7.18215" height="7.18215" fill="#F0F0F3"/>
<rect x="125.688" y="122.096" width="7.18215" height="7.18215" fill="#F0F0F3"/>
<rect x="150.825" y="122.096" width="7.18215" height="7.18215" fill="#F0F0F3"/>
<rect x="175.963" y="122.096" width="7.18215" height="7.18215" fill="#F0F0F3"/>
<rect x="201.101" y="122.096" width="7.18215" height="7.18215" fill="#F0F0F3"/>
<rect x="226.238" y="122.096" width="7.18215" height="7.18215" fill="#F0F0F3"/>
<rect x="251.376" y="122.096" width="7.18215" height="7.18215" fill="#F0F0F3"/>
<rect x="276.514" y="122.096" width="7.18215" height="7.18215" fill="#F0F0F3"/>
<rect x="301.65" y="122.096" width="7.18215" height="7.18215" fill="#F0F0F3"/>
<rect x="326.787" y="122.096" width="7.18215" height="7.18215" fill="#F0F0F3"/>
<rect x="351.914" y="122.096" width="7.18215" height="7.18215" fill="#F0F0F3"/>
<rect x="377.04" y="122.096" width="7.18215" height="7.18215" fill="#F0F0F3"/>
<rect x="402.166" y="122.096" width="7.18215" height="7.18215" fill="#F0F0F3"/>
<rect y="146.516" width="7.18215" height="7.18215" fill="#F0F0F3"/>
<rect x="25.1377" y="146.516" width="7.18215" height="7.18215" fill="#F0F0F3"/>
<rect x="50.2754" y="146.516" width="7.18215" height="7.18215" fill="#F0F0F3"/>
<rect x="75.4131" y="146.516" width="7.18215" height="7.18215" fill="#F0F0F3"/>
<rect x="100.55" y="146.516" width="7.18215" height="7.18215" fill="#F0F0F3"/>
<rect x="125.688" y="146.516" width="7.18215" height="7.18215" fill="#F0F0F3"/>
<rect x="150.825" y="146.516" width="7.18215" height="7.18215" fill="#F0F0F3"/>
<rect x="175.963" y="146.516" width="7.18215" height="7.18215" fill="#F0F0F3"/>
<rect x="201.101" y="146.516" width="7.18215" height="7.18215" fill="#F0F0F3"/>
<rect x="226.238" y="146.516" width="7.18215" height="7.18215" fill="#F0F0F3"/>
<rect x="251.376" y="146.516" width="7.18215" height="7.18215" fill="#F0F0F3"/>
<rect x="276.514" y="146.516" width="7.18215" height="7.18215" fill="#F0F0F3"/>
<rect x="301.65" y="146.516" width="7.18215" height="7.18215" fill="#F0F0F3"/>
<rect x="326.787" y="146.516" width="7.18215" height="7.18215" fill="#F0F0F3"/>
<rect x="351.914" y="146.516" width="7.18215" height="7.18215" fill="#F0F0F3"/>
<rect x="377.04" y="146.516" width="7.18215" height="7.18215" fill="#F0F0F3"/>
<rect x="402.166" y="146.516" width="7.18215" height="7.18215" fill="#F0F0F3"/>
<rect y="170.936" width="7.18215" height="7.18215" fill="#F0F0F3"/>
<rect x="25.1377" y="170.936" width="7.18215" height="7.18215" fill="#F0F0F3"/>
<rect x="50.2754" y="170.936" width="7.18215" height="7.18215" fill="#F0F0F3"/>
<rect x="75.4131" y="170.936" width="7.18215" height="7.18215" fill="#F0F0F3"/>
<rect x="100.55" y="170.936" width="7.18215" height="7.18215" fill="#F0F0F3"/>
<rect x="125.688" y="170.936" width="7.18215" height="7.18215" fill="#F0F0F3"/>
<rect x="150.825" y="170.936" width="7.18215" height="7.18215" fill="#F0F0F3"/>
<rect x="175.963" y="170.936" width="7.18215" height="7.18215" fill="#F0F0F3"/>
<rect x="201.101" y="170.936" width="7.18215" height="7.18215" fill="#F0F0F3"/>
<rect x="226.238" y="170.936" width="7.18215" height="7.18215" fill="#F0F0F3"/>
<rect x="251.376" y="170.936" width="7.18215" height="7.18215" fill="#F0F0F3"/>
<rect x="276.514" y="170.936" width="7.18215" height="7.18215" fill="#F0F0F3"/>
<rect x="301.65" y="170.936" width="7.18215" height="7.18215" fill="#F0F0F3"/>
<rect x="326.787" y="170.936" width="7.18215" height="7.18215" fill="#F0F0F3"/>
<rect x="351.914" y="170.936" width="7.18215" height="7.18215" fill="#F0F0F3"/>
<rect x="377.04" y="170.936" width="7.18215" height="7.18215" fill="#F0F0F3"/>
<rect x="402.166" y="170.936" width="7.18215" height="7.18215" fill="#F0F0F3"/>
<rect x="326.787" y="195.357" width="7.18215" height="7.18215" fill="#F0F0F3"/>
<rect x="351.914" y="195.357" width="7.18215" height="7.18215" fill="#F0F0F3"/>
<rect x="377.04" y="195.357" width="7.18215" height="7.18215" fill="#F0F0F3"/>
<rect x="402.166" y="195.357" width="7.18215" height="7.18215" fill="#F0F0F3"/>
<rect y="219.773" width="7.18215" height="7.18215" fill="#F0F0F3"/>
<rect x="25.1377" y="219.771" width="7.18215" height="7.18215" fill="#F0F0F3"/>
<rect x="50.2754" y="219.771" width="7.18215" height="7.18215" fill="#F0F0F3"/>
<rect x="75.4131" y="219.771" width="7.18215" height="7.18215" fill="#F0F0F3"/>
<rect x="100.55" y="219.771" width="7.18215" height="7.18215" fill="#F0F0F3"/>
<rect x="125.688" y="219.771" width="7.18215" height="7.18215" fill="#F0F0F3"/>
<rect x="150.825" y="219.771" width="7.18215" height="7.18215" fill="#F0F0F3"/>
<rect x="175.963" y="219.771" width="7.18215" height="7.18215" fill="#F0F0F3"/>
<rect x="201.101" y="219.771" width="7.18215" height="7.18215" fill="#F0F0F3"/>
<rect x="226.238" y="219.771" width="7.18215" height="7.18215" fill="#F0F0F3"/>
<rect x="251.376" y="219.771" width="7.18215" height="7.18215" fill="#F0F0F3"/>
<rect x="276.514" y="219.771" width="7.18215" height="7.18215" fill="#F0F0F3"/>
<rect x="301.65" y="219.771" width="7.18215" height="7.18215" fill="#F0F0F3"/>
<rect x="326.787" y="219.771" width="7.18215" height="7.18215" fill="#F0F0F3"/>
<rect x="351.914" y="219.771" width="7.18215" height="7.18215" fill="#F0F0F3"/>
<rect x="377.04" y="219.771" width="7.18215" height="7.18215" fill="#F0F0F3"/>
<rect x="402.166" y="219.771" width="7.18215" height="7.18215" fill="#F0F0F3"/>
<rect x="326.787" y="244.193" width="7.18215" height="7.18215" fill="#F0F0F3"/>
<rect x="351.914" y="244.193" width="7.18215" height="7.18215" fill="#F0F0F3"/>
<rect x="377.04" y="244.193" width="7.18215" height="7.18215" fill="#F0F0F3"/>
<rect x="402.166" y="244.193" width="7.18215" height="7.18215" fill="#F0F0F3"/>
<rect y="268.613" width="7.18215" height="7.18215" fill="#F0F0F3"/>
<rect x="25.1377" y="268.613" width="7.18215" height="7.18215" fill="#F0F0F3"/>
<rect x="50.2754" y="268.613" width="7.18215" height="7.18215" fill="#F0F0F3"/>
<rect x="75.4131" y="268.613" width="7.18215" height="7.18215" fill="#F0F0F3"/>
<rect x="100.55" y="268.613" width="7.18215" height="7.18215" fill="#F0F0F3"/>
<rect x="125.688" y="268.613" width="7.18215" height="7.18215" fill="#F0F0F3"/>
<rect x="150.825" y="268.613" width="7.18215" height="7.18215" fill="#F0F0F3"/>
<rect x="175.963" y="268.613" width="7.18215" height="7.18215" fill="#F0F0F3"/>
<rect x="201.101" y="268.613" width="7.18215" height="7.18215" fill="#F0F0F3"/>
<rect x="226.238" y="268.613" width="7.18215" height="7.18215" fill="#F0F0F3"/>
<rect x="251.376" y="268.613" width="7.18215" height="7.18215" fill="#F0F0F3"/>
<rect x="276.514" y="268.613" width="7.18215" height="7.18215" fill="#F0F0F3"/>
<rect x="301.65" y="268.613" width="7.18215" height="7.18215" fill="#F0F0F3"/>
<rect x="326.787" y="268.613" width="7.18215" height="7.18215" fill="#F0F0F3"/>
<rect x="351.914" y="268.613" width="7.18215" height="7.18215" fill="#F0F0F3"/>
<rect x="377.04" y="268.613" width="7.18215" height="7.18215" fill="#F0F0F3"/>
<rect x="402.166" y="268.613" width="7.18215" height="7.18215" fill="#F0F0F3"/>
<rect y="293.029" width="7.18215" height="7.18215" fill="#F0F0F3"/>
<rect x="25.1377" y="293.029" width="7.18215" height="7.18215" fill="#F0F0F3"/>
<rect x="50.2754" y="293.029" width="7.18215" height="7.18215" fill="#F0F0F3"/>
<rect x="75.4131" y="293.029" width="7.18215" height="7.18215" fill="#F0F0F3"/>
<rect x="100.55" y="293.029" width="7.18215" height="7.18215" fill="#F0F0F3"/>
<rect x="125.688" y="293.029" width="7.18215" height="7.18215" fill="#F0F0F3"/>
<rect x="150.825" y="293.029" width="7.18215" height="7.18215" fill="#F0F0F3"/>
<rect x="175.963" y="293.029" width="7.18215" height="7.18215" fill="#F0F0F3"/>
<rect x="201.101" y="293.029" width="7.18215" height="7.18215" fill="#F0F0F3"/>
<rect x="226.238" y="293.029" width="7.18215" height="7.18215" fill="#F0F0F3"/>
<rect x="251.376" y="293.029" width="7.18215" height="7.18215" fill="#F0F0F3"/>
<rect x="276.514" y="293.029" width="7.18215" height="7.18215" fill="#F0F0F3"/>
<rect x="301.65" y="293.029" width="7.18215" height="7.18215" fill="#F0F0F3"/>
<rect x="326.787" y="293.029" width="7.18215" height="7.18215" fill="#F0F0F3"/>
<rect x="351.914" y="293.029" width="7.18215" height="7.18215" fill="#F0F0F3"/>
<rect x="377.04" y="293.029" width="7.18215" height="7.18215" fill="#F0F0F3"/>
<rect x="402.166" y="293.029" width="7.18215" height="7.18215" fill="#F0F0F3"/>
<rect y="317.449" width="7.18215" height="7.18215" fill="#F0F0F3"/>
<rect x="25.1377" y="317.449" width="7.18215" height="7.18215" fill="#F0F0F3"/>
<rect x="50.2754" y="317.449" width="7.18215" height="7.18215" fill="#F0F0F3"/>
<rect x="75.4131" y="317.449" width="7.18215" height="7.18215" fill="#F0F0F3"/>
<rect x="100.55" y="317.449" width="7.18215" height="7.18215" fill="#F0F0F3"/>
<rect x="125.688" y="317.449" width="7.18215" height="7.18215" fill="#F0F0F3"/>
<rect x="150.825" y="317.449" width="7.18215" height="7.18215" fill="#F0F0F3"/>
<rect x="175.963" y="317.449" width="7.18215" height="7.18215" fill="#F0F0F3"/>
<rect x="201.101" y="317.449" width="7.18215" height="7.18215" fill="#F0F0F3"/>
<rect x="226.238" y="317.449" width="7.18215" height="7.18215" fill="#F0F0F3"/>
<rect x="251.376" y="317.449" width="7.18215" height="7.18215" fill="#F0F0F3"/>
<rect x="276.514" y="317.449" width="7.18215" height="7.18215" fill="#F0F0F3"/>
<rect x="301.65" y="317.449" width="7.18215" height="7.18215" fill="#F0F0F3"/>
<rect x="326.787" y="317.449" width="7.18215" height="7.18215" fill="#F0F0F3"/>
<rect x="351.914" y="317.449" width="7.18215" height="7.18215" fill="#F0F0F3"/>
<rect x="377.04" y="317.449" width="7.18215" height="7.18215" fill="#F0F0F3"/>
<rect x="402.166" y="317.449" width="7.18215" height="7.18215" fill="#F0F0F3"/>
<rect x="326.787" y="341.869" width="7.18215" height="7.18215" fill="#F0F0F3"/>
<rect x="351.914" y="341.869" width="7.18215" height="7.18215" fill="#F0F0F3"/>
<rect x="377.04" y="341.869" width="7.18215" height="7.18215" fill="#F0F0F3"/>
<rect x="402.166" y="341.869" width="7.18215" height="7.18215" fill="#F0F0F3"/>
<rect y="366.289" width="7.18215" height="7.18215" fill="#F0F0F3"/>
<rect x="25.1377" y="366.289" width="7.18215" height="7.18215" fill="#F0F0F3"/>
<rect x="50.2754" y="366.289" width="7.18215" height="7.18215" fill="#F0F0F3"/>
<rect x="75.4131" y="366.289" width="7.18215" height="7.18215" fill="#F0F0F3"/>
<rect x="100.55" y="366.289" width="7.18215" height="7.18215" fill="#F0F0F3"/>
<rect x="125.688" y="366.289" width="7.18215" height="7.18215" fill="#F0F0F3"/>
<rect x="150.825" y="366.289" width="7.18215" height="7.18215" fill="#F0F0F3"/>
<rect x="175.963" y="366.289" width="7.18215" height="7.18215" fill="#F0F0F3"/>
<rect x="201.101" y="366.289" width="7.18215" height="7.18215" fill="#F0F0F3"/>
<rect x="226.238" y="366.289" width="7.18215" height="7.18215" fill="#F0F0F3"/>
<rect x="251.376" y="366.289" width="7.18215" height="7.18215" fill="#F0F0F3"/>
<rect x="276.514" y="366.289" width="7.18215" height="7.18215" fill="#F0F0F3"/>
<rect x="301.65" y="366.289" width="7.18215" height="7.18215" fill="#F0F0F3"/>
<rect x="326.787" y="366.289" width="7.18215" height="7.18215" fill="#F0F0F3"/>
<rect x="351.914" y="366.289" width="7.18215" height="7.18215" fill="#F0F0F3"/>
<rect x="377.04" y="366.289" width="7.18215" height="7.18215" fill="#F0F0F3"/>
<rect x="402.166" y="366.289" width="7.18215" height="7.18215" fill="#F0F0F3"/>
<rect y="390.709" width="7.18215" height="7.18215" fill="#F0F0F3"/>
<rect x="25.1377" y="390.709" width="7.18215" height="7.18215" fill="#F0F0F3"/>
<rect x="50.2754" y="390.709" width="7.18215" height="7.18215" fill="#F0F0F3"/>
<rect x="75.4131" y="390.709" width="7.18215" height="7.18215" fill="#F0F0F3"/>
<rect x="100.55" y="390.709" width="7.18215" height="7.18215" fill="#F0F0F3"/>
<rect x="125.688" y="390.709" width="7.18215" height="7.18215" fill="#F0F0F3"/>
<rect x="150.825" y="390.709" width="7.18215" height="7.18215" fill="#F0F0F3"/>
<rect x="175.963" y="390.709" width="7.18215" height="7.18215" fill="#F0F0F3"/>
<rect x="201.101" y="390.709" width="7.18215" height="7.18215" fill="#F0F0F3"/>
<rect x="226.238" y="390.709" width="7.18215" height="7.18215" fill="#F0F0F3"/>
<rect x="251.376" y="390.709" width="7.18215" height="7.18215" fill="#F0F0F3"/>
<rect x="276.514" y="390.709" width="7.18215" height="7.18215" fill="#F0F0F3"/>
<rect x="301.65" y="390.709" width="7.18215" height="7.18215" fill="#F0F0F3"/>
<rect x="326.787" y="390.709" width="7.18215" height="7.18215" fill="#F0F0F3"/>
<rect x="351.914" y="390.709" width="7.18215" height="7.18215" fill="#F0F0F3"/>
<rect x="377.04" y="390.709" width="7.18215" height="7.18215" fill="#F0F0F3"/>
<rect x="402.166" y="390.709" width="7.18215" height="7.18215" fill="#F0F0F3"/>
</svg>
