<svg width="360" height="544" viewBox="0 0 360 544" fill="none" xmlns="http://www.w3.org/2000/svg">
<path d="M103.583 209.939L108.801 212.135C108.751 212.437 108.706 212.734 108.666 213.036C108.54 213.873 108.439 214.709 108.358 215.555L103.14 213.359C103.226 212.518 103.326 211.681 103.447 210.84C103.487 210.533 103.533 210.236 103.583 209.934" fill="#EDEDED"/>
<path d="M103.14 213.354L108.358 215.55C108.1 218.14 108.016 220.745 108.106 223.347L102.888 221.151C102.8 218.549 102.884 215.944 103.14 213.354Z" fill="#EEEEEE"/>
<path d="M102.888 221.152L108.107 223.348C108.251 227.431 108.794 231.49 109.728 235.468L104.51 233.271C103.578 229.294 103.035 225.235 102.888 221.152Z" fill="#EFEFEF"/>
<path d="M104.51 233.271L109.728 235.468C110.01 236.677 110.328 237.882 110.68 239.084L105.452 236.888C105.096 235.683 104.777 234.477 104.495 233.271" fill="#F0F0F0"/>
<path d="M105.467 236.885L110.68 239.081L76.6652 273.096L71.4468 270.9L105.467 236.885Z" fill="#E8E8E8"/>
<path d="M138.137 204.221L143.356 206.417C142.76 207.019 142.203 207.658 141.689 208.331L136.47 206.14C136.985 205.465 137.541 204.824 138.137 204.221Z" fill="#E8E8E8"/>
<path d="M136.47 206.141L141.688 208.332C141.206 208.965 140.762 209.626 140.359 210.311L135.14 208.115C135.545 207.432 135.989 206.772 136.47 206.141Z" fill="#E9E9E9"/>
<path d="M135.14 208.115L140.359 210.311C139.977 210.964 139.631 211.637 139.321 212.326L134.108 210.135C134.416 209.446 134.761 208.773 135.14 208.12" fill="#EAEAEA"/>
<path d="M134.107 210.115L139.321 212.306C139.008 213.002 138.731 213.713 138.49 214.437L133.276 212.241C133.514 211.518 133.792 210.808 134.107 210.115Z" fill="#EBEBEB"/>
<path d="M133.276 212.24L138.49 214.436C138.231 215.219 138.014 216.014 137.84 216.819L132.652 214.623C132.827 213.818 133.044 213.023 133.302 212.24" fill="#ECECEC"/>
<path d="M132.652 214.623L137.865 216.819C137.666 217.754 137.518 218.699 137.422 219.65L132.208 217.454C132.302 216.503 132.45 215.557 132.652 214.623Z" fill="#EDEDED"/>
<path d="M132.183 217.453L137.397 219.649C137.331 220.339 137.286 221.045 137.271 221.75C137.271 222.267 137.271 222.786 137.271 223.306L132.068 221.125C132.068 220.621 132.068 220.088 132.068 219.569C132.068 218.864 132.123 218.163 132.194 217.468" fill="#EEEEEE"/>
<path d="M132.068 221.125L137.286 223.321C137.317 224.332 137.403 225.341 137.543 226.343C137.679 227.351 137.865 228.358 138.107 229.401L132.889 227.205C132.647 226.197 132.461 225.16 132.325 224.147C132.189 223.135 132.103 222.132 132.068 221.125Z" fill="#EFEFEF"/>
<path d="M132.889 227.195L138.107 229.391C139.223 234.033 141.212 238.42 143.97 242.316L138.752 240.12C135.998 236.221 134.009 231.835 132.889 227.195Z" fill="#F0F0F0"/>
<path d="M138.752 240.119L143.97 242.315C145.226 244.11 146.621 245.805 148.141 247.383C148.574 247.826 149.007 248.259 149.45 248.682L144.237 246.486C143.794 246.068 143.356 245.63 142.927 245.186C141.404 243.61 140.008 241.915 138.752 240.119Z" fill="#EFEFEF"/>
<path d="M144.237 246.486L149.45 248.682C150.826 249.992 152.292 251.204 153.838 252.309L148.619 250.113C147.075 249.009 145.61 247.797 144.237 246.486Z" fill="#EEEEEE"/>
<path d="M148.619 250.113L153.838 252.309C155.091 253.211 156.398 254.035 157.752 254.778L152.538 252.581C151.184 251.838 149.875 251.013 148.619 250.113Z" fill="#EDEDED"/>
<path d="M152.538 252.582L157.751 254.778C158.848 255.379 159.974 255.924 161.126 256.41L155.913 254.214C154.761 253.728 153.634 253.184 152.538 252.582Z" fill="#ECECEC"/>
<path d="M139.819 226.304L145.038 228.5C142.635 227.482 140.118 226.755 137.543 226.335L132.324 224.148C134.9 224.57 137.416 225.297 139.819 226.314" fill="#E7E7E7"/>
<path d="M179.355 163.002L184.569 165.198L143.356 206.416L138.137 204.22L179.355 163.002Z" fill="#E8E8E8"/>
<path d="M71.4468 270.9L76.6652 273.097L121.58 319.704L116.367 317.513L71.4468 270.9Z" fill="#EFEFEF"/>
<path d="M157.585 276.295L162.799 278.486C159.432 277.786 156.141 276.762 152.971 275.429L147.763 273.232C150.935 274.565 154.227 275.591 157.595 276.295" fill="#E7E7E7"/>
<path d="M147.99 207.299L153.208 209.495C153.757 209.722 154.306 209.963 154.85 210.215C156.039 210.764 157.223 211.359 158.376 211.998L153.163 209.802C151.994 209.164 150.819 208.57 149.637 208.019C149.093 207.772 148.544 207.515 147.995 207.299" fill="#ECECEC"/>
<path d="M153.173 209.803L158.386 211.999C160.419 213.113 162.384 214.348 164.269 215.696L159.051 213.5C157.167 212.151 155.204 210.917 153.173 209.803Z" fill="#EDEDED"/>
<path d="M159.051 213.5L164.27 215.696C166.535 217.319 168.684 219.098 170.702 221.02L165.489 218.824C163.469 216.902 161.318 215.123 159.051 213.5Z" fill="#EEEEEE"/>
<path d="M165.488 218.824L170.702 221.02C171.353 221.635 171.991 222.268 172.616 222.919C174.839 225.224 176.879 227.7 178.716 230.324L173.497 228.133C171.664 225.507 169.628 223.03 167.407 220.723C166.779 220.075 166.141 219.442 165.493 218.824" fill="#EFEFEF"/>
<path d="M173.497 228.131L178.716 230.322C181.109 233.74 183.135 237.4 184.76 241.242L179.542 239.051C177.918 235.208 175.892 231.547 173.497 228.131Z" fill="#F0F0F0"/>
<path d="M179.537 239.051L184.755 241.242C184.678 241.433 184.597 241.62 184.513 241.801L179.3 239.61C179.381 239.424 179.461 239.237 179.537 239.051Z" fill="#EBEBEB"/>
<path d="M179.3 239.609L184.534 241.8C184.321 242.274 184.083 242.734 183.818 243.181L178.6 240.99C178.865 240.543 179.105 240.082 179.32 239.609" fill="#EAEAEA"/>
<path d="M178.58 240.99L183.798 243.181C183.515 243.661 183.204 244.124 182.866 244.567L177.653 242.37C177.989 241.929 178.298 241.468 178.58 240.99Z" fill="#E9E9E9"/>
<path d="M177.653 242.369L182.866 244.565C182.489 245.062 182.079 245.531 181.637 245.971L181.531 246.076L176.313 243.88L176.424 243.774C176.864 243.334 177.275 242.864 177.653 242.369Z" fill="#E8E8E8"/>
<path d="M176.313 243.881L181.511 246.077C178.69 248.837 174.933 250.172 170.883 250.172C169.258 250.166 167.64 249.965 166.063 249.573L160.859 247.377C162.435 247.769 164.051 247.97 165.675 247.976C169.704 247.976 173.482 246.641 176.303 243.881" fill="#E7E7E7"/>
<path d="M171.855 290.857L177.068 293.054L135.729 334.382L130.511 332.191L171.855 290.857Z" fill="#E8E8E8"/>
<path d="M198.874 287.613L204.087 289.809C201.695 288.782 199.189 288.045 196.622 287.613C195.161 287.378 193.684 287.258 192.205 287.256C186.447 287.256 181.123 289.139 177.093 293.048L171.88 290.852C175.91 286.948 181.234 285.064 186.991 285.064C188.472 285.063 189.951 285.181 191.414 285.417C193.986 285.839 196.499 286.566 198.899 287.583" fill="#E7E7E7"/>
<path d="M238.419 224.293L243.633 226.484L202.41 267.702L197.196 265.511L238.419 224.293Z" fill="#E8E8E8"/>
<path d="M130.511 332.191L135.729 334.383L180.645 380.995L175.431 378.799L130.511 332.191Z" fill="#EFEFEF"/>
<path d="M193.917 294.428L199.141 296.624C200.202 299.08 201.512 301.421 203.049 303.61L197.831 301.414C196.297 299.223 194.989 296.883 193.927 294.428" fill="#F0F0F0"/>
<path d="M197.821 301.414L203.039 303.61C204.295 305.396 205.69 307.08 207.21 308.647C207.643 309.1 208.087 309.539 208.535 309.962L203.316 307.766C202.868 307.342 202.43 306.904 201.992 306.451C200.471 304.876 199.076 303.183 197.821 301.389" fill="#EFEFEF"/>
<path d="M203.316 307.791L208.535 309.987C209.901 311.29 211.357 312.495 212.892 313.594L207.704 311.403C206.167 310.302 204.709 309.095 203.342 307.791" fill="#EEEEEE"/>
<path d="M207.704 311.402L212.917 313.594C214.173 314.494 215.482 315.318 216.836 316.062L211.617 313.866C210.265 313.123 208.958 312.3 207.704 311.402Z" fill="#EDEDED"/>
<path d="M211.592 313.865L216.811 316.061C217.482 316.434 218.172 316.785 218.881 317.114C219.319 317.316 219.757 317.512 220.196 317.698L214.977 315.502C214.539 315.316 214.101 315.124 213.668 314.918C212.972 314.591 212.282 314.243 211.592 313.865Z" fill="#ECECEC"/>
<path d="M216.453 337.546L221.666 339.742C218.367 339.044 215.142 338.032 212.035 336.72L206.817 334.523C209.925 335.838 213.151 336.85 216.453 337.546Z" fill="#E7E7E7"/>
<path d="M216.639 337.587L221.858 339.783L221.666 339.743L216.453 337.547L216.639 337.587Z" fill="#E7E7E7"/>
<path d="M189.092 293.83C190.718 293.836 192.339 294.037 193.917 294.429C195.856 298.898 198.587 302.98 201.977 306.478C205.321 309.981 209.278 312.842 213.652 314.92C216.438 316.245 219.397 317.169 222.442 317.665C222.652 319.184 222.743 320.716 222.714 322.249C222.593 328.147 220.598 333.577 216.624 337.587L216.438 337.547C212.536 336.721 208.739 335.459 205.12 333.784C198.462 330.698 192.442 326.392 187.369 321.091C182.231 315.779 178.114 309.567 175.225 302.766C175.935 300.991 176.998 299.379 178.348 298.026C181.189 295.2 184.992 293.83 189.092 293.83Z" fill="#F6F6F6"/>
<path d="M222.457 317.666L227.676 319.852C227.81 320.86 227.896 321.867 227.932 322.875L222.719 320.678C222.683 319.667 222.596 318.659 222.457 317.656" fill="#EFEFEF"/>
<path d="M222.719 320.698L227.932 322.874C227.932 323.378 227.932 323.912 227.932 324.425C227.932 325.136 227.877 325.836 227.806 326.531L222.593 324.335C222.664 323.64 222.704 322.939 222.719 322.229C222.719 321.725 222.719 321.222 222.719 320.678" fill="#EEEEEE"/>
<path d="M222.603 324.355L227.817 326.552C227.725 327.501 227.579 328.445 227.378 329.377L222.16 327.181C222.362 326.249 222.51 325.305 222.603 324.355Z" fill="#EDEDED"/>
<path d="M222.16 327.182L227.378 329.378C227.204 330.183 226.987 330.978 226.729 331.76L221.51 329.564C221.769 328.782 221.986 327.987 222.16 327.182Z" fill="#ECECEC"/>
<path d="M221.51 329.564L226.728 331.761C226.488 332.483 226.211 333.192 225.897 333.886L220.679 331.69C220.992 330.996 221.27 330.287 221.51 329.564Z" fill="#EBEBEB"/>
<path d="M220.679 331.689L225.898 333.886C225.599 334.575 225.262 335.248 224.89 335.9L219.672 333.704C220.046 333.052 220.382 332.38 220.679 331.689Z" fill="#EAEAEA"/>
<path d="M219.646 333.684L224.865 335.88C224.46 336.563 224.016 337.222 223.535 337.854L218.317 335.658C218.8 335.028 219.244 334.368 219.646 333.684Z" fill="#E9E9E9"/>
<path d="M218.317 335.658L223.535 337.854C223.019 338.533 222.458 339.178 221.858 339.784L216.639 337.587C217.24 336.982 217.8 336.337 218.317 335.658Z" fill="#E8E8E8"/>
<path d="M251.198 331.863C251.249 331.561 251.294 331.264 251.334 330.956C252.544 322.232 251.856 313.35 249.32 304.915L283.335 270.9L238.43 224.292L197.211 265.505C200.681 266.234 204.07 267.302 207.331 268.694C216.181 272.557 223.965 278.506 230.017 286.031C236.069 293.556 240.21 302.434 242.086 311.906C243.638 320.469 243.139 328.841 240.575 336.432C238.572 342.426 235.207 347.875 230.743 352.349L174.897 408.164L42.6147 270.9L103.563 209.952C103.513 210.254 103.467 210.551 103.427 210.858C102.215 219.583 102.902 228.466 105.442 236.9L71.4216 270.915L116.342 317.528L157.56 276.31C154.09 275.586 150.7 274.52 147.44 273.126C138.588 269.261 130.804 263.311 124.751 255.783C118.699 248.255 114.559 239.374 112.685 229.898C111.139 221.361 111.647 212.974 114.221 205.383C116.235 199.381 119.612 193.928 124.089 189.451L179.909 133.641L312.187 270.9L251.198 331.863ZM211.854 296.604C205.81 290.348 198.476 286.53 191.389 285.412C189.926 285.176 188.447 285.058 186.966 285.059C181.209 285.059 175.885 286.943 171.855 290.847L130.511 332.15L175.431 378.783L216.639 337.57C220.614 333.54 222.608 328.131 222.729 322.232C222.758 320.7 222.667 319.167 222.457 317.649C221.485 310.41 217.883 302.855 211.879 296.599L211.854 296.604ZM183.052 250.842L224.27 209.629L179.355 163.017L138.137 204.235C134.173 208.264 132.178 213.679 132.057 219.567C132.029 221.1 132.119 222.632 132.324 224.151C133.297 231.389 136.898 238.945 142.902 245.201C148.906 251.457 156.326 255.25 163.378 256.383C164.84 256.618 166.319 256.738 167.8 256.741C173.613 256.741 179.008 254.812 183.037 250.832" fill="#F6F6F6"/>
<path d="M138.137 204.221L138.339 204.266C142.231 205.097 146.019 206.359 149.632 208.029C156.295 211.117 162.323 215.422 167.407 220.722C172.544 226.035 176.657 232.248 179.542 239.052C178.833 240.826 177.772 242.438 176.424 243.792C173.588 246.623 169.785 247.993 165.685 247.993C164.061 247.987 162.445 247.785 160.869 247.393C158.929 242.925 156.199 238.844 152.81 235.345C149.465 231.838 145.506 228.974 141.129 226.892C138.338 225.569 135.374 224.645 132.324 224.147C132.119 222.63 132.03 221.099 132.057 219.569C132.178 213.665 134.163 208.235 138.137 204.221Z" fill="#F6F6F6"/>
<path d="M230.713 352.35L235.931 354.546L180.111 410.356L174.897 408.165L230.713 352.35Z" fill="#E8E8E8"/>
<path d="M207.054 268.59L212.272 270.781L212.529 270.892C214.208 271.604 215.852 272.403 217.461 273.289L212.237 271.093C210.615 270.207 208.971 269.408 207.306 268.696L207.044 268.59" fill="#ECECEC"/>
<path d="M212.237 271.094L217.451 273.29C219.479 274.404 221.438 275.639 223.319 276.987L218.1 274.791C216.221 273.444 214.263 272.209 212.237 271.094Z" fill="#EDEDED"/>
<path d="M218.115 274.791L223.319 276.987C225.584 278.608 227.733 280.386 229.751 282.306L224.533 280.11C222.515 278.19 220.366 276.412 218.1 274.791" fill="#EEEEEE"/>
<path d="M224.548 280.109L229.766 282.306C230.416 282.92 231.05 283.555 231.68 284.204C233.908 286.521 235.951 289.008 237.79 291.644L232.572 289.448C230.735 286.817 228.692 284.336 226.462 282.028C225.837 281.374 225.199 280.739 224.548 280.125" fill="#EFEFEF"/>
<path d="M232.572 289.434L237.79 291.645C242.02 297.667 245.064 304.44 246.761 311.602L241.548 309.405C239.847 302.245 236.801 295.472 232.572 289.449" fill="#F0F0F0"/>
<path d="M241.548 309.391L246.761 311.587C246.959 312.423 247.135 313.262 247.29 314.105C247.763 316.687 248.046 319.3 248.136 321.923L242.923 319.727C242.828 317.104 242.544 314.491 242.071 311.909C241.92 311.068 241.744 310.232 241.568 309.391" fill="#EFEFEF"/>
<path d="M242.923 319.725L248.136 321.921C248.214 324.127 248.145 326.337 247.93 328.534L242.711 326.338C242.929 324.141 242.999 321.931 242.923 319.725Z" fill="#EEEEEE"/>
<path d="M242.711 326.34L247.93 328.536C247.755 330.298 247.479 332.049 247.103 333.78L241.89 331.583C242.264 329.853 242.538 328.102 242.711 326.34Z" fill="#EDEDED"/>
<path d="M241.89 331.584L247.104 333.78C246.77 335.312 246.357 336.825 245.865 338.313L240.646 336.117C241.14 334.629 241.555 333.116 241.89 331.584Z" fill="#ECECEC"/>
<path d="M240.646 336.133L245.864 338.329L245.759 338.631C245.321 339.954 244.817 341.253 244.248 342.525L239.034 340.329C239.608 339.059 240.112 337.761 240.545 336.435L240.646 336.133Z" fill="#EBEBEB"/>
<path d="M239.014 340.327L244.227 342.518C243.617 343.875 242.931 345.197 242.172 346.478L236.959 344.281C237.714 342.999 238.399 341.677 239.014 340.322" fill="#EAEAEA"/>
<path d="M236.959 344.287L242.172 346.483C241.358 347.867 240.461 349.201 239.488 350.478L234.269 348.281C235.244 347.005 236.143 345.671 236.959 344.287Z" fill="#E9E9E9"/>
<path d="M234.269 348.279L239.487 350.475C238.393 351.909 237.205 353.268 235.931 354.545L230.713 352.349C231.988 351.074 233.176 349.714 234.269 348.279Z" fill="#E8E8E8"/>
<path d="M179.889 133.637L185.102 135.833L317.385 273.097L312.167 270.901L179.889 133.637Z" fill="#EFEFEF"/>
<path d="M312.167 270.9L317.385 273.097L256.417 334.06L251.198 331.864L312.167 270.9Z" fill="#E8E8E8"/>
<g filter="url(#filter0_f)">
<ellipse cx="172.575" cy="480.299" rx="132.483" ry="8.20689" fill="black" fill-opacity="0.05"/>
</g>
<defs>
<filter id="filter0_f" x="25.092" y="457.092" width="294.966" height="46.4138" filterUnits="userSpaceOnUse" color-interpolation-filters="sRGB">
<feFlood flood-opacity="0" result="BackgroundImageFix"/>
<feBlend mode="normal" in="SourceGraphic" in2="BackgroundImageFix" result="shape"/>
<feGaussianBlur stdDeviation="7.5" result="effect1_foregroundBlur"/>
</filter>
</defs>
</svg>
