<svg width="25" height="25" viewBox="0 0 25 25" fill="none" xmlns="http://www.w3.org/2000/svg">
<path fill-rule="evenodd" clip-rule="evenodd" d="M5 0C3.67392 0 2.40215 0.526784 1.46447 1.46447C0.526784 2.40215 0 3.67392 0 5V20C0 21.3261 0.526784 22.5979 1.46447 23.5355C2.40215 24.4732 3.67392 25 5 25H20C21.3261 25 22.5979 24.4732 23.5355 23.5355C24.4732 22.5979 25 21.3261 25 20V5C25 3.67392 24.4732 2.40215 23.5355 1.46447C22.5979 0.526784 21.3261 0 20 0H5ZM2.5 5C2.5 4.33696 2.76339 3.70107 3.23223 3.23223C3.70107 2.76339 4.33696 2.5 5 2.5H20C20.663 2.5 21.2989 2.76339 21.7678 3.23223C22.2366 3.70107 22.5 4.33696 22.5 5V20C22.5 20.663 22.2366 21.2989 21.7678 21.7678C21.2989 22.2366 20.663 22.5 20 22.5H5C4.33696 22.5 3.70107 22.2366 3.23223 21.7678C2.76339 21.2989 2.5 20.663 2.5 20V5ZM8.75 11.25C8.75 10.9185 8.75 10 8.75 10C8.75 10 7.83152 10 7.5 10C7.16848 10 6.17417 9.96043 6.25 10C6.25 10 6.25 10.9185 6.25 11.25V18.75C6.25 19.0815 6.25 20 6.25 20C6.25 20 7.16848 20 7.5 20C7.83152 20 8.75 20 8.75 20C8.75 20 8.75 19.0815 8.75 18.75V11.25ZM9.375 6.875C9.375 7.37228 9.17746 7.84919 8.82583 8.20083C8.47419 8.55246 7.99728 8.75 7.5 8.75C7.00272 8.75 6.52581 8.55246 6.17417 8.20083C5.82254 7.84919 5.625 7.37228 5.625 6.875C5.625 6.37772 5.82254 5.90081 6.17417 5.54917C6.52581 5.19754 7.00272 5 7.5 5C7.99728 5 8.47419 5.19754 8.82583 5.54917C9.17746 5.90081 9.375 6.37772 9.375 6.875ZM13.525 10C13.525 10 13.525 10 13.525 10.535C14.1693 10.1839 14.8913 9.99994 15.625 10C18.325 10 20 11.6462 20 13.7025V18.75C20 19.0815 20 20 20 20C20 20 19.0815 20 18.75 20C18.4185 20 18.125 20 17.5 20C17.5 20 17.5 19.0815 17.5 18.75V13.7012C17.5 12.7412 16.675 12.4987 15.625 12.4987C14.97 12.4987 14.2463 12.855 13.75 13.7025V18.75C13.75 19.0815 13.75 20 13.75 20C13.75 20 12.8315 20 12.5 20C12.1685 20 11.25 20 11.25 20C11.25 20 11.25 19.0815 11.25 18.75V11.25C11.25 10.9185 11.25 10 11.25 10C11.25 10 13.1935 10 13.525 10Z" fill="#4C4C4C"/>
</svg>
