<svg width="151" height="158" viewBox="0 0 151 158" fill="none" xmlns="http://www.w3.org/2000/svg">
<path d="M94.8208 112.874C99.6776 110.058 104.279 107.076 108.599 103.968C110.938 90.5294 112.286 73.5456 110.154 55.8721C109.45 55.3911 108.729 54.91 108.005 54.4322C103.165 51.2377 97.9872 48.2069 92.5131 45.379C88.3721 43.2388 84.2014 41.3311 80.0894 39.5945C77.5445 38.517 74.9589 37.5194 72.2536 36.5786C66.7075 39.0028 61.1069 41.8264 55.5295 45.0606C50.5383 47.9553 45.817 51.0269 41.3948 54.2288C40.0861 61.6942 39.2639 69.6593 39.0315 77.9453C38.7965 86.2844 39.1708 94.3289 40.0692 101.893C52.046 109.946 65.3395 116.655 78.0671 121.375C83.6206 118.943 89.2345 116.118 94.8208 112.874Z" fill="#7CCCED"/>
<path d="M41.3947 54.2294C42.9554 45.3187 45.2165 37.1259 48.0224 29.9645C25.8798 26.1995 8.19716 29.8697 2.28783 41.3301C-2.94841 51.482 2.14679 65.6352 14.4353 79.7773C21.1388 71.041 30.3178 62.241 41.3947 54.2294Z" fill="#7CCCED"/>
<path d="M135.918 78.1607C130.656 85.0238 123.864 91.9192 115.825 98.4475C114.982 110.598 112.988 121.351 110.563 129.047C128.788 130.673 142.91 126.603 148.064 116.606C153.302 106.454 148.208 92.3012 135.918 78.1607Z" fill="#7CCCED"/>
<path d="M103.261 27.0628C102.547 25.1525 101.772 23.2512 100.94 21.3636C100.457 20.4482 92.249 0.954384 77.3948 0.526333C67.2883 0.236023 57.9003 8.98616 50.9316 23.3057C61.7104 26.3725 71.4452 29.7498 80.055 33.4062C88.1169 30.3908 95.9479 28.2723 103.261 27.0628Z" fill="#7CCCED"/>
<path d="M46.915 130.907C53.0806 146.912 62.3489 157.113 72.9626 157.411C82.7482 157.686 91.8646 149.493 98.7607 135.971C92.3533 134.247 81.7058 130.547 69.7236 124.755C61.7973 127.679 54.1071 129.732 46.915 130.907Z" fill="#7CCCED"/>
<path d="M13.9038 80.478C2.81717 95.2097 -1.17988 109.698 4.69986 119.85C10.949 130.637 26.9988 134.159 46.9152 130.905C44.2756 124.05 42.205 116.13 40.8386 107.473C30.7105 99.9856 21.2042 91.0071 13.9038 80.478Z" fill="#7CCCED"/>
<path d="M136.25 77.7305C147.492 62.9039 151.569 48.3036 145.652 38.0929C139.461 27.4022 123.651 23.8432 103.99 26.9413C108.048 35.0059 110.947 43.7963 112.893 52.8188C125.911 63.2869 133.202 73.0945 136.25 77.7305Z" fill="#7CCCED"/>
<path d="M114 58.5843C116.336 72.1993 116.686 86.0543 115.825 98.4492C123.865 91.9209 130.656 85.0255 135.919 78.1624C135.267 77.4127 134.597 76.6626 133.906 75.9146C129.197 70.8987 122.526 64.7837 114 58.5843Z" fill="#1690C3"/>
<path d="M40.8379 107.474C42.2043 116.131 44.2748 124.051 46.9145 130.906C54.1065 129.731 61.7967 127.678 69.7231 124.754C60.4457 120.27 50.3779 114.532 40.8379 107.474Z" fill="#1690C3"/>
<path d="M94.8211 112.878C89.2348 116.121 83.6209 118.946 78.0674 121.378C80.833 122.385 82.1343 122.848 84.2774 123.535C90.1824 125.427 95.9297 126.826 101.387 127.814C101.561 127.846 101.736 127.878 101.906 127.906C102.051 127.928 102.192 127.948 102.337 127.973C102.607 127.283 102.873 126.577 103.135 125.866C104.88 120.9 106.977 113.287 108.6 103.972C104.28 107.079 99.6779 110.061 94.8211 112.878Z" fill="#1690C3"/>
<path d="M55.5293 45.0623C61.1066 41.8281 66.7072 39.0045 72.2533 36.5803C64.7373 33.9653 56.7607 31.6354 48.1493 29.9857C48.1075 29.9762 48.0625 29.972 48.0222 29.9656C45.2163 37.127 42.9552 45.3198 41.3945 54.2305C45.8167 51.0286 50.538 47.957 55.5293 45.0623Z" fill="#1690C3"/>
<path d="M27.419 92.4382C27.8547 92.8059 28.2846 93.1709 28.7283 93.5306C28.7733 93.5666 28.8209 93.6053 28.8643 93.6408C32.4156 96.5216 36.1744 99.2796 40.0693 101.895C39.1709 94.33 38.7966 86.2855 39.0316 77.9465C39.2641 69.6604 40.0862 61.6954 41.3949 54.2299C30.3181 62.2416 21.139 71.0415 14.4355 79.7779C18.1394 84.0308 22.496 88.2939 27.419 92.4382Z" fill="#1690C3"/>
<path d="M109.326 50.0508C108.069 42.3819 106.112 34.642 103.262 27.0616C95.9486 28.2711 88.1175 30.3896 80.0557 33.405C88.3552 36.928 95.6103 40.7121 101.736 44.7166C104.44 46.487 106.962 48.2739 109.326 50.0508Z" fill="#1690C3"/>
</svg>
